<svg width="21" height="21" viewBox="0 0 21 21" fill="none" xmlns="http://www.w3.org/2000/svg">
<path d="M9.33813 5.26872V17.2286C9.33813 17.7022 8.96094 18.0843 8.49935 18.0843H6.90092C6.43669 18.0843 6.06213 17.6995 6.06213 17.2286V5.26872C6.06213 4.79517 6.43932 4.41309 6.90092 4.41309H8.49935C8.96358 4.41309 9.33813 4.79517 9.33813 5.26872ZM2.64633 8.82038H0.749913C0.367457 8.82038 0.0588379 9.13518 0.0588379 9.52534V17.382C0.0588379 17.7722 0.36744 18.087 0.749913 18.087H2.64633C3.02878 18.087 3.3374 17.7722 3.3374 17.382V9.52534C3.3374 9.1352 3.02615 8.82038 2.64633 8.82038ZM14.5712 6.56557H12.8357C12.4111 6.56557 12.0655 6.91805 12.0655 7.35124V17.2986C12.0655 17.7318 12.4111 18.0843 12.8357 18.0843H14.5712C14.9959 18.0843 15.3414 17.7318 15.3414 17.2986V7.354C15.3414 6.91812 14.9959 6.56557 14.5712 6.56557Z" fill="black" fill-opacity="0.3"/>
<path d="M17.1822 7.02707C16.9601 7.02707 16.7801 6.84701 16.7801 6.62489V0.994459C16.7801 0.772345 16.9601 0.592285 17.1822 0.592285H18.0048C18.2269 0.592285 18.4069 0.772345 18.4069 0.994459V6.62489C18.4069 6.84701 18.2269 7.02707 18.0048 7.02707H17.1822ZM14.7783 4.62311C14.5562 4.62311 14.3761 4.44305 14.3761 4.22094V3.39841C14.3761 3.1763 14.5562 2.99624 14.7783 2.99624H20.4087C20.6308 2.99624 20.8109 3.1763 20.8109 3.39841V4.22094C20.8109 4.44305 20.6308 4.62311 20.4087 4.62311H14.7783Z" fill="black" fill-opacity="0.3"/>
</svg>
